<svg width="40" height="40" viewBox="0 0 40 40" fill="none" xmlns="http://www.w3.org/2000/svg">
<path d="M32.8427 19.5116L20.3889 7.27861C20.2992 7.19029 20.1927 7.12022 20.0754 7.07241C19.9582 7.02461 19.8325 7 19.7056 7C19.5786 7 19.4529 7.02461 19.3357 7.07241C19.2184 7.12022 19.1119 7.19029 19.0223 7.27861L6.56842 19.5116C6.2056 19.8682 6 20.3527 6 20.8579C6 21.907 6.86775 22.76 7.93505 22.76H9.24725V31.4889C9.24725 32.015 9.67961 32.44 10.2148 32.44H17.7705V25.7826H21.1569V32.44H29.1964C29.7315 32.44 30.1639 32.015 30.1639 31.4889V22.76H31.4761C31.9901 22.76 32.4829 22.5609 32.8457 22.2013C33.5986 21.4583 33.5986 20.2546 32.8427 19.5116Z" fill="#00477D"/>
</svg>
