<svg width="37" height="40" viewBox="0 0 37 40" fill="none" xmlns="http://www.w3.org/2000/svg">
<path d="M19.08 17.3402L18 17.8802L16.92 17.3402L0.92 9.34022L16.92 0.340215C17.224 0.164679 17.5689 0.0722656 17.92 0.0722656C18.2711 0.0722656 18.616 0.164679 18.92 0.340215L34.92 9.34022L26.92 13.3402C26.8699 13.287 26.8084 13.246 26.74 13.2202L18.74 9.22021C18.2738 9.02608 17.7514 9.0155 17.2778 9.19057C16.8041 9.36565 16.4142 9.71343 16.1863 10.1641C15.9585 10.6148 15.9095 11.1349 16.0493 11.6202C16.1891 12.1054 16.5073 12.5199 16.94 12.7802L22.48 15.5602L19.08 17.3402ZM0 11.1202V29.1202C0.000610714 29.4746 0.0953776 29.8225 0.274601 30.1282C0.453824 30.4339 0.711067 30.6866 1.02 30.8602L17.02 39.8402V19.8402L16.02 19.3402L0 11.1202ZM36 11.1202L28 15.1202V24.0002C28 24.5306 27.7893 25.0394 27.4142 25.4144C27.0391 25.7895 26.5304 26.0002 26 26.0002C25.4696 26.0002 24.9609 25.7895 24.5858 25.4144C24.2107 25.0394 24 24.5306 24 24.0002V17.1202L19 19.6202V39.6202L35 30.6402C35.2909 30.4727 35.535 30.2347 35.7098 29.9481C35.8845 29.6615 35.9843 29.3355 36 29.0002V11.0002C36.0105 11.0185 36.0161 11.0392 36.0161 11.0602C36.0161 11.0813 36.0105 11.102 36 11.1202Z" fill="#00508C"/>
</svg>
