<svg width="48" height="48" viewBox="0 0 48 48" fill="none" xmlns="http://www.w3.org/2000/svg">
<path d="M16 48H5.33333C2.4 48 0 45.6 0 42.6667V5.33333C0 2.4 2.4 0 5.33333 0H16C18.9333 0 21.3333 2.4 21.3333 5.33333V42.6667C21.3333 45.6 18.9333 48 16 48ZM32 48H42.6667C45.6 48 48 45.6 48 42.6667V29.3333C48 26.4 45.6 24 42.6667 24H32C29.0667 24 26.6667 26.4 26.6667 29.3333V42.6667C26.6667 45.6 29.0667 48 32 48ZM48 13.3333V5.33333C48 2.4 45.6 0 42.6667 0H32C29.0667 0 26.6667 2.4 26.6667 5.33333V13.3333C26.6667 16.2667 29.0667 18.6667 32 18.6667H42.6667C45.6 18.6667 48 16.2667 48 13.3333Z" fill="#00508C"/>
</svg>
