<svg width="48" height="48" viewBox="0 0 48 48" fill="none" xmlns="http://www.w3.org/2000/svg">
<path d="M38.7 18.12C37.34 7.77 31.28 0 24 0C18.22 0 13.2 4.92 10.7 12.12C4.68 13.08 0 20.73 0 30C0 39.93 5.38 48 12 48H38C43.52 48 48 41.28 48 33C48 25.08 43.9 18.66 38.7 18.12ZM38 42H12C7.58 42 4 36.63 4 30C4 23.85 7.06 18.72 11.12 18.09L13.26 17.76L14.26 14.91C16.16 9.42 19.88 6 24 6C29.24 6 33.76 11.58 34.78 19.29L35.38 23.79L38.44 24.12C41.56 24.42 44 28.35 44 33C44 37.95 41.3 42 38 42Z" fill="#00508C"/>
</svg>
