<svg width="42" height="40" viewBox="0 0 42 40" fill="none" xmlns="http://www.w3.org/2000/svg">
<path d="M39.8161 18.8259L22.1561 1.16586C21.4161 0.425859 20.3961 0.00585938 19.3361 0.00585938H4.99609C2.79609 0.00585938 0.996094 1.80586 0.996094 4.00586V18.3459C0.996094 19.4059 1.41609 20.4259 2.17609 21.1659L19.8361 38.8259C21.3961 40.3859 23.9361 40.3859 25.4961 38.8259L39.8361 24.4859C41.3961 22.9259 41.3961 20.4059 39.8161 18.8259ZM9.99609 12.0059C8.33609 12.0059 6.99609 10.6659 6.99609 9.00586C6.99609 7.34586 8.33609 6.00586 9.99609 6.00586C11.6561 6.00586 12.9961 7.34586 12.9961 9.00586C12.9961 10.6659 11.6561 12.0059 9.99609 12.0059Z" fill="#00508C"/>
</svg>
