<svg xmlns="http://www.w3.org/2000/svg" width="20" height="20" fill="none" viewBox="0 0 20 20">
  <path stroke="#000" stroke-linecap="round" stroke-linejoin="round" stroke-opacity=".9" stroke-width="1.5" d="m3.748 3.125 12.5 13.75m-4.147-4.562a3.125 3.125 0 0 1-4.203-4.625"/>
  <path stroke="#000" stroke-linecap="round" stroke-linejoin="round" stroke-opacity=".9" stroke-width="1.5" d="M5.781 5.36C2.594 6.968 1.25 10 1.25 10s2.5 5.625 8.75 5.625a9.211 9.211 0 0 0 4.219-.984m2.08-1.43C18.002 11.687 18.752 10 18.752 10s-2.5-5.625-8.75-5.625a9.68 9.68 0 0 0-1.617.133"/>
  <path stroke="#000" stroke-linecap="round" stroke-linejoin="round" stroke-opacity=".9" stroke-width="1.5" d="M10.586 6.93a3.117 3.117 0 0 1 2.523 2.773"/>
</svg>
