<svg width="24" height="24" viewBox="0 0 24 24" fill="none" xmlns="http://www.w3.org/2000/svg">
<path d="M20.2567 11.6873L11.694 3.19345C11.6323 3.13212 11.5591 3.08347 11.4785 3.05028C11.3979 3.01709 11.3114 3 11.2242 3C11.1369 3 11.0505 3.01709 10.9699 3.05028C10.8892 3.08347 10.816 3.13212 10.7544 3.19345L2.1916 11.6873C1.94214 11.9349 1.80078 12.2713 1.80078 12.6221C1.80078 13.3506 2.39741 13.9428 3.13124 13.9428H4.03346V20.0036C4.03346 20.3689 4.33073 20.664 4.69869 20.664H9.89371V16.0415H12.222V20.664H17.7497C18.1176 20.664 18.4149 20.3689 18.4149 20.0036V13.9428H19.3171C19.6705 13.9428 20.0094 13.8045 20.2588 13.5548C20.7764 13.0389 20.7764 12.2032 20.2567 11.6873Z" fill="white"/>
</svg>
