<svg width="40" height="36" viewBox="0 0 40 36" fill="none" xmlns="http://www.w3.org/2000/svg">
<path d="M34 10H10C8.84023 10.0003 7.70539 10.3367 6.73282 10.9685C5.76025 11.6003 4.99164 12.5005 4.52 13.56L0 23.74V4C0 2.93913 0.421427 1.92172 1.17157 1.17157C1.92172 0.421427 2.93913 0 4 0H12C13.0417 0.00406214 14.0428 0.404509 14.8 1.12L19.66 6H30C31.0609 6 32.0783 6.42143 32.8284 7.17157C33.5786 7.92172 34 8.93913 34 10ZM39.62 14.84C39.436 14.5815 39.1931 14.3705 38.9114 14.2245C38.6297 14.0784 38.3173 14.0015 38 14H10C9.61528 14.0008 9.23895 14.1126 8.91614 14.3218C8.59333 14.5311 8.33774 14.8291 8.18 15.18L0.18 33.18C0.0432291 33.4843 -0.0152652 33.8179 0.00984192 34.1505C0.034949 34.4832 0.14286 34.8042 0.323751 35.0845C0.504642 35.3648 0.752766 35.5954 1.04553 35.7553C1.3383 35.9152 1.66642 35.9993 2 36H32C32.4193 36.0011 32.8283 35.8704 33.1693 35.6263C33.5102 35.3823 33.7658 35.0372 33.9 34.64L39.9 16.64C39.9992 16.3392 40.0255 16.0192 39.9768 15.7063C39.9282 15.3933 39.8059 15.0964 39.62 14.84Z" fill="#00508C"/>
</svg>
