<svg width="20" height="20" viewBox="0 0 20 20" fill="none" xmlns="http://www.w3.org/2000/svg">
<path d="M3.74805 3.125L16.248 16.875" stroke="black" stroke-opacity="0.4" stroke-width="2" stroke-linecap="round" stroke-linejoin="round"/>
<path d="M12.1012 12.3125C11.5277 12.8379 10.7774 13.128 9.99967 13.125C9.36894 13.1249 8.75299 12.934 8.23279 12.5773C7.7126 12.2206 7.31252 11.7149 7.08513 11.1266C6.85775 10.5383 6.81372 9.8949 6.95882 9.28109C7.10392 8.66728 7.43136 8.11173 7.8981 7.6875" stroke="black" stroke-opacity="0.4" stroke-width="2" stroke-linecap="round" stroke-linejoin="round"/>
<path d="M5.78125 5.35938C2.59375 6.96875 1.25 10 1.25 10C1.25 10 3.75 15.625 10 15.625C11.4645 15.6369 12.9108 15.2995 14.2188 14.6406" stroke="black" stroke-opacity="0.4" stroke-width="2" stroke-linecap="round" stroke-linejoin="round"/>
<path d="M16.2988 13.211C18.002 11.6875 18.752 10 18.752 10C18.752 10 16.252 4.37502 10.002 4.37502C9.46012 4.37395 8.91916 4.41838 8.38477 4.50783" stroke="black" stroke-opacity="0.4" stroke-width="2" stroke-linecap="round" stroke-linejoin="round"/>
<path d="M10.5859 6.92969C11.2505 7.05561 11.8561 7.39427 12.3113 7.89457C12.7665 8.39487 13.0466 9.02965 13.1094 9.70312" stroke="black" stroke-opacity="0.4" stroke-width="2" stroke-linecap="round" stroke-linejoin="round"/>
</svg>
