<svg width="48" height="48" viewBox="0 0 48 48" fill="none" xmlns="http://www.w3.org/2000/svg">
<path d="M2.66667 0H18.6667C20.1333 0 21.3333 1.2 21.3333 2.66667V18.6667C21.3333 20.1333 20.1333 21.3333 18.6667 21.3333H2.66667C1.2 21.3333 0 20.1333 0 18.6667V2.66667C0 1.2 1.2 0 2.66667 0ZM29.3333 0H45.3333C46.8 0 48 1.2 48 2.66667V18.6667C48 20.1333 46.8 21.3333 45.3333 21.3333H29.3333C27.8667 21.3333 26.6667 20.1333 26.6667 18.6667V2.66667C26.6667 1.2 27.8667 0 29.3333 0ZM2.66667 26.6667H18.6667C20.1333 26.6667 21.3333 27.8667 21.3333 29.3333V45.3333C21.3333 46.8 20.1333 48 18.6667 48H2.66667C1.2 48 0 46.8 0 45.3333V29.3333C0 27.8667 1.2 26.6667 2.66667 26.6667ZM37.3333 26.6667C35.8667 26.6667 34.6667 27.8667 34.6667 29.3333V34.6667H29.3333C27.8667 34.6667 26.6667 35.8667 26.6667 37.3333C26.6667 38.8 27.8667 40 29.3333 40H34.6667V45.3333C34.6667 46.8 35.8667 48 37.3333 48C38.8 48 40 46.8 40 45.3333V40H45.3333C46.8 40 48 38.8 48 37.3333C48 35.8667 46.8 34.6667 45.3333 34.6667H40V29.3333C40 27.8667 38.8 26.6667 37.3333 26.6667Z" fill="#00508C"/>
</svg>
