<svg width="40" height="40" viewBox="0 0 40 40" fill="none" xmlns="http://www.w3.org/2000/svg">
<path d="M34 38V6C34 4.93913 33.5786 3.92172 32.8284 3.17157C32.0783 2.42143 31.0609 2 30 2H10C8.93913 2 7.92172 2.42143 7.17157 3.17157C6.42143 3.92172 6 4.93913 6 6V38M34 38H6M34 38H38M34 38H24M6 38H2M6 38H16M24 38V28C24 27.4696 23.7893 26.9609 23.4142 26.5858C23.0391 26.2107 22.5304 26 22 26H18C17.4696 26 16.9609 26.2107 16.5858 26.5858C16.2107 26.9609 16 27.4696 16 28V38M24 38H16M14 10H16M14 18H16M24 10H26M24 18H26" stroke="#00508C" stroke-width="4" stroke-linecap="round" stroke-linejoin="round"/>
</svg>
