<svg width="52" height="52" viewBox="0 0 52 52" fill="none" xmlns="http://www.w3.org/2000/svg">
<path d="M20.6667 11H7.33333C5.91885 11 4.56229 11.6321 3.5621 12.7574C2.5619 13.8826 2 15.4087 2 17V44C2 45.5913 2.5619 47.1174 3.5621 48.2426C4.56229 49.3679 5.91885 50 7.33333 50H44.6667C46.0812 50 47.4377 49.3679 48.4379 48.2426C49.4381 47.1174 50 45.5913 50 44V17C50 15.4087 49.4381 13.8826 48.4379 12.7574C47.4377 11.6321 46.0812 11 44.6667 11H31.3333M20.6667 11V8C20.6667 6.4087 21.2286 4.88258 22.2288 3.75736C23.229 2.63214 24.5855 2 26 2C27.4145 2 28.771 2.63214 29.7712 3.75736C30.7714 4.88258 31.3333 6.4087 31.3333 8V11M20.6667 11C20.6667 12.5913 21.2286 14.1174 22.2288 15.2426C23.229 16.3679 24.5855 17 26 17C27.4145 17 28.771 16.3679 29.7712 15.2426C30.7714 14.1174 31.3333 12.5913 31.3333 11M18 35C19.4145 35 20.771 34.3679 21.7712 33.2426C22.7714 32.1174 23.3333 30.5913 23.3333 29C23.3333 27.4087 22.7714 25.8826 21.7712 24.7574C20.771 23.6321 19.4145 23 18 23C16.5855 23 15.229 23.6321 14.2288 24.7574C13.2286 25.8826 12.6667 27.4087 12.6667 29C12.6667 30.5913 13.2286 32.1174 14.2288 33.2426C15.229 34.3679 16.5855 35 18 35ZM18 35C21.4827 35 24.4453 37.505 25.5467 41M18 35C16.345 34.9995 14.7306 35.5762 13.3791 36.6507C12.0275 37.7253 11.0054 39.2448 10.4533 41M34 26H42M34 38H39.3333" stroke="#00508C" stroke-width="4" stroke-linecap="round" stroke-linejoin="round"/>
</svg>
