<svg width="44" height="36" viewBox="0 0 44 36" fill="none" xmlns="http://www.w3.org/2000/svg">
<path d="M32 34H42V30C41.9999 28.7531 41.6113 27.5371 40.8883 26.5213C40.1652 25.5054 39.1436 24.74 37.9655 24.3315C36.7874 23.923 35.5112 23.8918 34.3145 24.242C33.1178 24.5923 32.0599 25.3067 31.288 26.286M32 34H12M32 34V30C32 28.688 31.748 27.434 31.288 26.286M31.288 26.286C30.5453 24.4299 29.2635 22.8389 27.608 21.7182C25.9525 20.5976 23.9992 19.9986 22 19.9986C20.0008 19.9986 18.0475 20.5976 16.392 21.7182C14.7365 22.8389 13.4547 24.4299 12.712 26.286M12 34H2V30C2.00009 28.7531 2.38867 27.5371 3.11172 26.5213C3.83477 25.5054 4.85637 24.74 6.0345 24.3315C7.21263 23.923 8.48875 23.8918 9.68548 24.242C10.8822 24.5923 11.9401 25.3067 12.712 26.286M12 34V30C12 28.688 12.252 27.434 12.712 26.286M28 8C28 9.5913 27.3679 11.1174 26.2426 12.2426C25.1174 13.3679 23.5913 14 22 14C20.4087 14 18.8826 13.3679 17.7574 12.2426C16.6321 11.1174 16 9.5913 16 8C16 6.4087 16.6321 4.88258 17.7574 3.75736C18.8826 2.63214 20.4087 2 22 2C23.5913 2 25.1174 2.63214 26.2426 3.75736C27.3679 4.88258 28 6.4087 28 8ZM40 14C40 15.0609 39.5786 16.0783 38.8284 16.8284C38.0783 17.5786 37.0609 18 36 18C34.9391 18 33.9217 17.5786 33.1716 16.8284C32.4214 16.0783 32 15.0609 32 14C32 12.9391 32.4214 11.9217 33.1716 11.1716C33.9217 10.4214 34.9391 10 36 10C37.0609 10 38.0783 10.4214 38.8284 11.1716C39.5786 11.9217 40 12.9391 40 14ZM12 14C12 15.0609 11.5786 16.0783 10.8284 16.8284C10.0783 17.5786 9.06087 18 8 18C6.93913 18 5.92172 17.5786 5.17157 16.8284C4.42143 16.0783 4 15.0609 4 14C4 12.9391 4.42143 11.9217 5.17157 11.1716C5.92172 10.4214 6.93913 10 8 10C9.06087 10 10.0783 10.4214 10.8284 11.1716C11.5786 11.9217 12 12.9391 12 14Z" stroke="#00508C" stroke-width="4" stroke-linecap="round" stroke-linejoin="round"/>
</svg>
