<svg width="44" height="42" viewBox="0 0 44 42" fill="none" xmlns="http://www.w3.org/2000/svg">
<path d="M38 18C38 13.7565 36.3143 9.68687 33.3137 6.68629C30.3131 3.68571 26.2435 2 22 2C17.7565 2 13.6869 3.68571 10.6863 6.68629C7.68571 9.68687 6 13.7565 6 18" stroke="#00508C" stroke-width="4" stroke-linecap="round" stroke-linejoin="round"/>
<path d="M38 31.9995V32.9995C38 34.0604 37.5786 35.0778 36.8284 35.8279C36.0783 36.5781 35.0609 36.9995 34 36.9995H27M2 26.8755V23.1235C2.00014 22.2315 2.29841 21.3652 2.84741 20.6622C3.39641 19.9592 4.16464 19.4598 5.03 19.2435L8.51 18.3715C8.68683 18.3275 8.87137 18.3243 9.04962 18.3622C9.22787 18.4001 9.39514 18.4781 9.53875 18.5903C9.68236 18.7025 9.79853 18.8459 9.87845 19.0097C9.95837 19.1734 9.99994 19.3533 10 19.5355V30.4615C10.0003 30.6441 9.95895 30.8244 9.87904 30.9886C9.79914 31.1528 9.68281 31.2966 9.53892 31.4091C9.39503 31.5215 9.22737 31.5997 9.04872 31.6375C8.87007 31.6754 8.68513 31.6719 8.508 31.6275L5.028 30.7575C4.16301 30.5408 3.39523 30.0413 2.84662 29.3383C2.29801 28.6354 2.00002 27.7692 2 26.8775V26.8755ZM42 26.8755V23.1235C41.9999 22.2315 41.7016 21.3652 41.1526 20.6622C40.6036 19.9592 39.8354 19.4598 38.97 19.2435L35.49 18.3715C35.3132 18.3275 35.1286 18.3243 34.9504 18.3622C34.7721 18.4001 34.6049 18.4781 34.4613 18.5903C34.3176 18.7025 34.2015 18.8459 34.1216 19.0097C34.0416 19.1734 34.0001 19.3533 34 19.5355V30.4615C33.9998 30.6439 34.0411 30.824 34.1209 30.988C34.2007 31.152 34.3168 31.2957 34.4605 31.4081C34.6041 31.5205 34.7715 31.5987 34.9499 31.6367C35.1283 31.6747 35.313 31.6716 35.49 31.6275L38.97 30.7575C39.8354 30.5412 40.6036 30.0419 41.1526 29.3388C41.7016 28.6358 41.9999 27.7695 42 26.8775V26.8755Z" stroke="#00508C" stroke-width="4"/>
<path d="M25 40H19C18.2044 40 17.4413 39.6839 16.8787 39.1213C16.3161 38.5587 16 37.7956 16 37C16 36.2044 16.3161 35.4413 16.8787 34.8787C17.4413 34.3161 18.2044 34 19 34H25C25.7956 34 26.5587 34.3161 27.1213 34.8787C27.6839 35.4413 28 36.2044 28 37C28 37.7956 27.6839 38.5587 27.1213 39.1213C26.5587 39.6839 25.7956 40 25 40Z" stroke="#00508C" stroke-width="4"/>
</svg>
