<svg width="485" height="83" viewBox="0 0 485 83" fill="none" xmlns="http://www.w3.org/2000/svg">
<g style="mix-blend-mode:hard-light" filter="url(#filter0_d_1347_6801)">
<path d="M18.3805 74L4.68047 3.5H17.5805L27.5805 61.3H23.5805L53.4805 3.5H63.0805L73.0805 61.3H69.3805L98.6805 3.5H111.78L75.4805 74H64.7805L54.7805 19.8H56.8805L29.0805 74H18.3805ZM137.34 75C131.407 75 126.473 73.8333 122.54 71.5C118.673 69.1667 115.94 65.9 114.34 61.7C112.74 57.4333 112.373 52.5 113.24 46.9C114.04 41.8333 115.64 37.5 118.04 33.9C120.507 30.2333 123.64 27.4333 127.44 25.5C131.24 23.5 135.573 22.5 140.44 22.5C145.307 22.5 149.307 23.5667 152.44 25.7C155.64 27.8333 157.907 30.7667 159.24 34.5C160.573 38.1667 160.84 42.4333 160.04 47.3L159.54 50.5H122.84L123.84 43.9H151.74L149.84 45.5C150.573 40.7667 150.073 37.2 148.34 34.8C146.673 32.3333 143.873 31.1 139.94 31.1C137.14 31.1 134.707 31.7333 132.64 33C130.64 34.2667 129.007 36.0333 127.74 38.3C126.54 40.5 125.74 43 125.34 45.8L124.84 49.1C124.107 54.3 124.873 58.3333 127.14 61.2C129.473 64 133.407 65.4 138.94 65.4C141.54 65.4 144.073 65.0333 146.54 64.3C149.073 63.5 151.507 62.2333 153.84 60.5L157.44 68.9C154.707 70.9 151.607 72.4333 148.14 73.5C144.673 74.5 141.073 75 137.34 75ZM174.425 74L186.125 0.399994H198.625L186.925 74H174.425ZM232.899 75C227.366 75 222.733 73.8667 218.999 71.6C215.266 69.2667 212.599 66.0333 210.999 61.9C209.466 57.7 209.133 52.8 209.999 47.2C211.333 39.0667 214.566 32.9333 219.699 28.8C224.899 24.6 231.299 22.5 238.899 22.5C242.033 22.5 245.066 22.9667 247.999 23.9C250.999 24.8333 253.399 26.2 255.199 28L251.099 36.5C249.499 35.0333 247.633 33.9667 245.499 33.3C243.366 32.5667 241.299 32.2 239.299 32.2C235.033 32.2 231.399 33.5333 228.399 36.2C225.466 38.8 223.566 42.7667 222.699 48.1C221.833 53.3667 222.466 57.5333 224.599 60.6C226.799 63.6667 230.233 65.2 234.899 65.2C236.899 65.2 239.033 64.8333 241.299 64.1C243.633 63.3 245.799 62.0667 247.799 60.4L251.399 69C249.333 70.8 246.599 72.2667 243.199 73.4C239.866 74.4667 236.433 75 232.899 75ZM289.713 75C284.247 75 279.68 73.9 276.013 71.7C272.413 69.5 269.847 66.3333 268.313 62.2C266.847 58 266.547 53 267.413 47.2C268.28 41.8 270.013 37.2667 272.613 33.6C275.28 29.9333 278.58 27.1667 282.513 25.3C286.513 23.4333 290.947 22.5 295.813 22.5C301.347 22.5 305.913 23.6 309.513 25.8C313.113 28 315.647 31.1667 317.113 35.3C318.647 39.4333 318.947 44.4 318.013 50.2C317.147 55.6 315.38 60.1333 312.713 63.8C310.113 67.4667 306.847 70.2667 302.913 72.2C298.98 74.0667 294.58 75 289.713 75ZM290.413 65.4C294.213 65.4 297.48 64.0667 300.213 61.4C302.947 58.6667 304.747 54.6 305.613 49.2C306.547 43.3333 306.013 39.0333 304.013 36.3C302.013 33.5 299.013 32.1 295.013 32.1C291.147 32.1 287.88 33.4667 285.213 36.2C282.547 38.8667 280.78 42.8667 279.913 48.2C278.98 54.0667 279.48 58.4 281.413 61.2C283.347 64 286.347 65.4 290.413 65.4ZM333.093 74L339.093 36.1C339.426 34.0333 339.693 31.9333 339.893 29.8C340.093 27.6667 340.226 25.5667 340.293 23.5H352.393L351.793 33.5H350.493C352.426 29.8333 354.926 27.1 357.993 25.3C361.126 23.4333 364.693 22.5 368.693 22.5C372.693 22.5 375.926 23.4667 378.393 25.4C380.86 27.3333 382.26 30.2667 382.593 34.2H380.893C382.826 30.6667 385.526 27.8333 388.993 25.7C392.46 23.5667 396.193 22.5 400.193 22.5C405.993 22.5 410.093 24.2333 412.493 27.7C414.96 31.1667 415.626 36.6333 414.493 44.1L409.693 74H397.193L401.993 43.6C402.593 39.6667 402.326 36.8 401.193 35C400.126 33.2 398.093 32.3 395.093 32.3C391.626 32.3 388.76 33.5333 386.493 36C384.226 38.4 382.76 41.6667 382.093 45.8L377.593 74H365.093L369.893 43.6C370.56 39.6667 370.326 36.8 369.193 35C368.126 33.2 366.093 32.3 363.093 32.3C359.56 32.3 356.66 33.5333 354.393 36C352.193 38.4 350.76 41.6667 350.093 45.8L345.593 74H333.093ZM456.734 75C450.801 75 445.868 73.8333 441.934 71.5C438.068 69.1667 435.334 65.9 433.734 61.7C432.134 57.4333 431.768 52.5 432.634 46.9C433.434 41.8333 435.034 37.5 437.434 33.9C439.901 30.2333 443.034 27.4333 446.834 25.5C450.634 23.5 454.968 22.5 459.834 22.5C464.701 22.5 468.701 23.5667 471.834 25.7C475.034 27.8333 477.301 30.7667 478.634 34.5C479.968 38.1667 480.234 42.4333 479.434 47.3L478.934 50.5H442.234L443.234 43.9H471.134L469.234 45.5C469.968 40.7667 469.468 37.2 467.734 34.8C466.068 32.3333 463.268 31.1 459.334 31.1C456.534 31.1 454.101 31.7333 452.034 33C450.034 34.2667 448.401 36.0333 447.134 38.3C445.934 40.5 445.134 43 444.734 45.8L444.234 49.1C443.501 54.3 444.268 58.3333 446.534 61.2C448.868 64 452.801 65.4 458.334 65.4C460.934 65.4 463.468 65.0333 465.934 64.3C468.468 63.5 470.901 62.2333 473.234 60.5L476.834 68.9C474.101 70.9 471.001 72.4333 467.534 73.5C464.068 74.5 460.468 75 456.734 75Z" fill="#00388C"/>
</g>
<defs>
<filter id="filter0_d_1347_6801" x="0.680664" y="0.400391" width="483.954" height="82.5996" filterUnits="userSpaceOnUse" color-interpolation-filters="sRGB">
<feFlood flood-opacity="0" result="BackgroundImageFix"/>
<feColorMatrix in="SourceAlpha" type="matrix" values="0 0 0 0 0 0 0 0 0 0 0 0 0 0 0 0 0 0 127 0" result="hardAlpha"/>
<feOffset dy="4"/>
<feGaussianBlur stdDeviation="2"/>
<feComposite in2="hardAlpha" operator="out"/>
<feColorMatrix type="matrix" values="0 0 0 0 0 0 0 0 0 0 0 0 0 0 0 0 0 0 0.25 0"/>
<feBlend mode="normal" in2="BackgroundImageFix" result="effect1_dropShadow_1347_6801"/>
<feBlend mode="normal" in="SourceGraphic" in2="effect1_dropShadow_1347_6801" result="shape"/>
</filter>
</defs>
</svg>
